<svg width="108" height="108" viewBox="0 0 108 108" fill="none" xmlns="http://www.w3.org/2000/svg">
<path fill-rule="evenodd" clip-rule="evenodd" d="M1 0C0.447715 0 0 0.447718 0 1V107C0 107.552 0.447718 108 1 108H107C107.552 108 108 107.552 108 107V1C108 0.447715 107.552 0 107 0H1ZM94.5 13.5H13.5V94.5H94.5V13.5ZM44.4541 54L28.977 38.523C26.341 35.8869 26.341 31.6131 28.977 28.977C31.6131 26.341 35.8869 26.341 38.523 28.977L58.773 49.227C61.409 51.8631 61.409 56.1369 58.773 58.773L38.523 79.023C35.8869 81.659 31.6131 81.659 28.977 79.023C26.341 76.3869 26.341 72.1131 28.977 69.477L44.4541 54ZM81 67.5H60.75V81H81V67.5Z" fill="#222629"/>
</svg>
